<svg width="16" height="16" viewBox="0 0 16 16" fill="none" xmlns="http://www.w3.org/2000/svg">
<path d="M8.00016 8.00065H8.00683M10.6668 4.00065V2.66732C10.6668 2.3137 10.5264 1.97456 10.2763 1.72451C10.0263 1.47446 9.68712 1.33398 9.3335 1.33398H6.66683C6.31321 1.33398 5.97407 1.47446 5.72402 1.72451C5.47397 1.97456 5.3335 2.3137 5.3335 2.66732V4.00065M14.6668 8.66732C12.6887 9.9733 10.3705 10.6695 8.00016 10.6695C5.6298 10.6695 3.31163 9.9733 1.3335 8.66732M2.66683 4.00065H13.3335C14.0699 4.00065 14.6668 4.5976 14.6668 5.33398V12.0007C14.6668 12.737 14.0699 13.334 13.3335 13.334H2.66683C1.93045 13.334 1.3335 12.737 1.3335 12.0007V5.33398C1.3335 4.5976 1.93045 4.00065 2.66683 4.00065Z" stroke="#9333EA" stroke-width="1.33" stroke-linecap="round" stroke-linejoin="round"/>
</svg>
