<svg width="16" height="16" viewBox="0 0 16 16" fill="none" xmlns="http://www.w3.org/2000/svg">
<path d="M9.33333 1.3335V4.00016C9.33333 4.35378 9.47381 4.69292 9.72386 4.94297C9.97391 5.19302 10.313 5.3335 10.6667 5.3335H13.3333M10.6667 14.6668H12C12.3536 14.6668 12.6928 14.5264 12.9428 14.2763C13.1929 14.0263 13.3333 13.6871 13.3333 13.3335V4.66683L10 1.3335H4C3.64638 1.3335 3.30724 1.47397 3.05719 1.72402C2.80714 1.97407 2.66667 2.31321 2.66667 2.66683V5.00016M2.67797 7.6748C2.27021 8.03666 1.94073 8.47805 1.70976 8.97187C1.47879 9.46568 1.35119 10.0015 1.33481 10.5464C1.31844 11.0913 1.41362 11.6338 1.61452 12.1406C1.81542 12.6474 2.1178 13.1078 2.50308 13.4935C2.88836 13.8792 3.34842 14.1821 3.855 14.3835C4.36158 14.5849 4.904 14.6807 5.44893 14.6649C5.99386 14.6491 6.52982 14.5221 7.02388 14.2916C7.51794 14.0612 7.95968 13.7322 8.32197 13.3248M5.33333 10.6668V6.66683C6.3942 6.66683 7.41161 7.08826 8.16176 7.8384C8.91191 8.58855 9.33333 9.60596 9.33333 10.6668H5.33333Z" stroke="#161C24" stroke-width="1.5" stroke-linecap="round" stroke-linejoin="round"/>
</svg>
