<svg width="16" height="16" viewBox="0 0 16 16" fill="none" xmlns="http://www.w3.org/2000/svg">
<path d="M12.0001 3.3335L10.3907 1.72416C10.1408 1.4741 9.80167 1.33357 9.44808 1.3335H4.00008C3.64646 1.3335 3.30732 1.47397 3.05727 1.72402C2.80722 1.97407 2.66675 2.31321 2.66675 2.66683V13.3335C2.66675 13.6871 2.80722 14.0263 3.05727 14.2763C3.30732 14.5264 3.64646 14.6668 4.00008 14.6668H12.0001C12.3537 14.6668 12.6928 14.5264 12.9429 14.2763C13.1929 14.0263 13.3334 13.6871 13.3334 13.3335M5.33341 12.0002H6.00008M14.2521 8.41743C14.5176 8.15186 14.6668 7.79167 14.6668 7.4161C14.6668 7.04053 14.5176 6.68034 14.2521 6.41477C13.9865 6.1492 13.6263 6 13.2507 6C12.8752 6 12.515 6.1492 12.2494 6.41477L9.57607 9.08943C9.41756 9.24785 9.30155 9.44366 9.23873 9.65877L8.68073 11.5721C8.664 11.6295 8.663 11.6903 8.67783 11.7482C8.69266 11.806 8.72278 11.8589 8.76503 11.9011C8.80728 11.9434 8.86012 11.9735 8.91801 11.9883C8.97589 12.0032 9.0367 12.0022 9.09407 11.9854L11.0074 11.4274C11.2225 11.3646 11.4183 11.2486 11.5767 11.0901L14.2521 8.41743Z" stroke="#161C24" stroke-width="1.5" stroke-linecap="round" stroke-linejoin="round"/>
</svg>
