<svg width="109" height="23" viewBox="0 0 109 23" fill="none" xmlns="http://www.w3.org/2000/svg">
<path d="M106.677 17.76C106.085 17.76 105.629 17.592 105.309 17.256C105.005 16.904 104.853 16.416 104.853 15.792V7.584C104.853 6.944 105.005 6.456 105.309 6.12C105.629 5.768 106.085 5.592 106.677 5.592C107.253 5.592 107.693 5.768 107.997 6.12C108.317 6.456 108.477 6.944 108.477 7.584V15.792C108.477 16.416 108.325 16.904 108.021 17.256C107.717 17.592 107.269 17.76 106.677 17.76ZM106.677 3.624C106.005 3.624 105.485 3.472 105.117 3.168C104.765 2.848 104.589 2.4 104.589 1.824C104.589 1.232 104.765 0.784 105.117 0.48C105.485 0.16 106.005 0 106.677 0C107.349 0 107.861 0.16 108.213 0.48C108.565 0.784 108.741 1.232 108.741 1.824C108.741 2.4 108.565 2.848 108.213 3.168C107.861 3.472 107.349 3.624 106.677 3.624Z" fill="#9333EA"/>
<path d="M96.4773 17.8319C95.6133 17.8319 94.8373 17.6639 94.1493 17.3279C93.4613 16.9919 92.9253 16.5359 92.5413 15.9599C92.1573 15.3839 91.9653 14.7359 91.9653 14.0159C91.9653 13.1519 92.1893 12.4719 92.6373 11.9759C93.0853 11.4639 93.8133 11.1039 94.8213 10.8959C95.8293 10.6719 97.1653 10.5599 98.8293 10.5599H100.101V12.4319H98.8533C98.0373 12.4319 97.3733 12.4799 96.8613 12.5759C96.3653 12.6559 96.0053 12.7999 95.7813 13.0079C95.5733 13.2159 95.4693 13.5039 95.4693 13.8719C95.4693 14.3199 95.6213 14.6879 95.9253 14.9759C96.2453 15.2639 96.7013 15.4079 97.2933 15.4079C97.7573 15.4079 98.1653 15.3039 98.5173 15.0959C98.8853 14.8719 99.1733 14.5759 99.3813 14.2079C99.5893 13.8239 99.6933 13.3919 99.6933 12.9119V10.1519C99.6933 9.44795 99.5333 8.95195 99.2133 8.66395C98.8933 8.35995 98.3493 8.20795 97.5813 8.20795C97.1493 8.20795 96.6773 8.26395 96.1653 8.37595C95.6693 8.47195 95.1173 8.63995 94.5093 8.87995C94.1573 9.03995 93.8453 9.07995 93.5733 8.99995C93.3013 8.90395 93.0933 8.74395 92.9493 8.51995C92.8053 8.27995 92.7333 8.02395 92.7333 7.75195C92.7333 7.46395 92.8133 7.19195 92.9733 6.93595C93.1333 6.66395 93.3973 6.46395 93.7653 6.33595C94.5173 6.03195 95.2213 5.82395 95.8773 5.71195C96.5493 5.59995 97.1653 5.54395 97.7253 5.54395C98.9573 5.54395 99.9653 5.72795 100.749 6.09595C101.549 6.44795 102.149 6.99995 102.549 7.75195C102.949 8.48795 103.149 9.43995 103.149 10.6079V15.9359C103.149 16.5279 103.005 16.9839 102.717 17.3039C102.429 17.6239 102.013 17.7839 101.469 17.7839C100.925 17.7839 100.501 17.6239 100.197 17.3039C99.9093 16.9839 99.7653 16.5279 99.7653 15.9359V15.0479L99.9333 15.1919C99.8373 15.7359 99.6293 16.2079 99.3093 16.6079C99.0053 16.9919 98.6133 17.2959 98.1333 17.5199C97.6533 17.7279 97.1013 17.8319 96.4773 17.8319Z" fill="#9333EA"/>
<path d="M89.058 17.6879C88.418 17.6879 87.906 17.4959 87.522 17.1119C87.154 16.7279 86.97 16.2319 86.97 15.6239C86.97 15.0319 87.154 14.5519 87.522 14.1839C87.906 13.7999 88.418 13.6079 89.058 13.6079C89.698 13.6079 90.194 13.7999 90.546 14.1839C90.914 14.5519 91.098 15.0319 91.098 15.6239C91.098 16.2319 90.914 16.7279 90.546 17.1119C90.194 17.4959 89.698 17.6879 89.058 17.6879Z" fill="#161C24"/>
<path d="M81.2501 17.8078C79.9221 17.8078 78.7781 17.5598 77.8181 17.0638C76.8581 16.5678 76.1141 15.8638 75.5861 14.9518C75.0741 14.0398 74.8181 12.9598 74.8181 11.7118C74.8181 10.4958 75.0661 9.4318 75.5621 8.5198C76.0741 7.6078 76.7701 6.8958 77.6501 6.3838C78.5461 5.8558 79.5621 5.5918 80.6981 5.5918C81.5301 5.5918 82.2741 5.7278 82.9301 5.9998C83.6021 6.2718 84.1701 6.6638 84.6341 7.1758C85.1141 7.6878 85.4741 8.3118 85.7141 9.0478C85.9701 9.7678 86.0981 10.5838 86.0981 11.4958C86.0981 11.7838 85.9941 12.0078 85.7861 12.1678C85.5941 12.3118 85.3141 12.3838 84.9461 12.3838H77.2421V10.6558H83.9861L83.6021 11.0158C83.6021 10.2798 83.4901 9.6638 83.2661 9.1678C83.0581 8.6718 82.7461 8.2958 82.3301 8.0398C81.9301 7.7678 81.4261 7.6318 80.8181 7.6318C80.1461 7.6318 79.5701 7.7918 79.0901 8.1118C78.6261 8.4158 78.2661 8.8558 78.0101 9.4318C77.7701 9.9918 77.6501 10.6638 77.6501 11.4478V11.6158C77.6501 12.9278 77.9541 13.9118 78.5621 14.5678C79.1861 15.2078 80.0981 15.5278 81.2981 15.5278C81.7141 15.5278 82.1781 15.4798 82.6901 15.3838C83.2181 15.2718 83.7141 15.0878 84.1781 14.8318C84.5141 14.6398 84.8101 14.5598 85.0661 14.5918C85.3221 14.6078 85.5221 14.6958 85.6661 14.8558C85.8261 15.0158 85.9221 15.2158 85.9541 15.4558C85.9861 15.6798 85.9381 15.9118 85.8101 16.1518C85.6981 16.3918 85.4981 16.5998 85.2101 16.7758C84.6501 17.1278 84.0021 17.3918 83.2661 17.5678C82.5461 17.7278 81.8741 17.8078 81.2501 17.8078Z" fill="#161C24"/>
<path d="M66.0533 17.568C65.7493 17.568 65.4933 17.496 65.2853 17.352C65.0933 17.192 64.9653 16.992 64.9013 16.752C64.8373 16.512 64.8373 16.256 64.9013 15.984C64.9813 15.696 65.1333 15.424 65.3573 15.168L71.5733 7.36803V8.08803H65.9093C65.5413 8.08803 65.2533 7.99203 65.0453 7.80003C64.8533 7.59203 64.7573 7.31203 64.7573 6.96003C64.7573 6.59203 64.8533 6.31203 65.0453 6.12003C65.2533 5.92803 65.5413 5.83203 65.9093 5.83203H73.0133C73.3653 5.83203 73.6533 5.91203 73.8773 6.07203C74.1013 6.21603 74.2453 6.40803 74.3093 6.64803C74.3893 6.88803 74.3973 7.14403 74.3333 7.41603C74.2693 7.68803 74.1253 7.94403 73.9013 8.18403L67.5653 16.104V15.312H73.5653C74.3333 15.312 74.7173 15.688 74.7173 16.44C74.7173 16.792 74.6133 17.072 74.4053 17.28C74.2133 17.472 73.9333 17.568 73.5653 17.568H66.0533Z" fill="#161C24"/>
<path d="M61.704 17.7362C61.224 17.7362 60.856 17.5922 60.6 17.3042C60.344 17.0162 60.216 16.6162 60.216 16.1042V7.29616C60.216 6.76816 60.344 6.36816 60.6 6.09616C60.856 5.80816 61.224 5.66416 61.704 5.66416C62.184 5.66416 62.552 5.80816 62.808 6.09616C63.08 6.36816 63.216 6.76816 63.216 7.29616V16.1042C63.216 16.6162 63.088 17.0162 62.832 17.3042C62.576 17.5922 62.2 17.7362 61.704 17.7362ZM61.704 3.43216C61.144 3.43216 60.704 3.29616 60.384 3.02416C60.08 2.73616 59.928 2.34416 59.928 1.84816C59.928 1.33616 60.08 0.94416 60.384 0.672159C60.704 0.40016 61.144 0.26416 61.704 0.26416C62.28 0.26416 62.72 0.40016 63.024 0.672159C63.328 0.94416 63.48 1.33616 63.48 1.84816C63.48 2.34416 63.328 2.73616 63.024 3.02416C62.72 3.29616 62.28 3.43216 61.704 3.43216Z" fill="#161C24"/>
<path d="M48.3134 22.0798C47.8334 22.0798 47.4654 21.9518 47.2094 21.6958C46.9534 21.4398 46.8254 21.0638 46.8254 20.5678V7.1518C46.8254 6.6558 46.9534 6.2798 47.2094 6.0238C47.4654 5.7678 47.8254 5.6398 48.2894 5.6398C48.7694 5.6398 49.1374 5.7678 49.3934 6.0238C49.6494 6.2798 49.7774 6.6558 49.7774 7.1518V9.0238L49.5134 8.3038C49.7534 7.4878 50.2414 6.8318 50.9774 6.3358C51.7294 5.8398 52.6014 5.5918 53.5934 5.5918C54.6174 5.5918 55.5134 5.8398 56.2814 6.3358C57.0654 6.8318 57.6734 7.5358 58.1054 8.4478C58.5374 9.3438 58.7534 10.4238 58.7534 11.6878C58.7534 12.9358 58.5374 14.0238 58.1054 14.9518C57.6734 15.8638 57.0734 16.5678 56.3054 17.0638C55.5374 17.5598 54.6334 17.8078 53.5934 17.8078C52.6174 17.8078 51.7614 17.5678 51.0254 17.0878C50.2894 16.5918 49.7934 15.9518 49.5374 15.1678H49.8254V20.5678C49.8254 21.0638 49.6894 21.4398 49.4174 21.6958C49.1614 21.9518 48.7934 22.0798 48.3134 22.0798ZM52.7534 15.5278C53.3454 15.5278 53.8654 15.3838 54.3134 15.0958C54.7614 14.8078 55.1054 14.3838 55.3454 13.8238C55.6014 13.2478 55.7294 12.5358 55.7294 11.6878C55.7294 10.4078 55.4574 9.4558 54.9134 8.8318C54.3694 8.1918 53.6494 7.8718 52.7534 7.8718C52.1614 7.8718 51.6414 8.0158 51.1934 8.3038C50.7454 8.5758 50.3934 8.9998 50.1374 9.5758C49.8974 10.1358 49.7774 10.8398 49.7774 11.6878C49.7774 12.9518 50.0494 13.9118 50.5934 14.5678C51.1374 15.2078 51.8574 15.5278 52.7534 15.5278Z" fill="#161C24"/>
<path d="M38.4814 17.784C37.5374 17.784 36.7454 17.608 36.1054 17.256C35.4814 16.904 35.0094 16.384 34.6894 15.696C34.3854 14.992 34.2334 14.112 34.2334 13.056V6.91199C34.2334 6.49599 34.3374 6.19199 34.5454 5.99999C34.7534 5.79199 35.0494 5.68799 35.4334 5.68799C35.8174 5.68799 36.1134 5.79199 36.3214 5.99999C36.5454 6.19199 36.6574 6.49599 36.6574 6.91199V13.08C36.6574 14.024 36.8494 14.72 37.2334 15.168C37.6174 15.616 38.2254 15.84 39.0574 15.84C39.9694 15.84 40.7054 15.536 41.2654 14.928C41.8414 14.304 42.1294 13.488 42.1294 12.48V6.91199C42.1294 6.49599 42.2334 6.19199 42.4414 5.99999C42.6494 5.79199 42.9534 5.68799 43.3534 5.68799C43.7374 5.68799 44.0334 5.79199 44.2414 5.99999C44.4494 6.19199 44.5534 6.49599 44.5534 6.91199V16.512C44.5534 17.328 44.1614 17.736 43.3774 17.736C43.0094 17.736 42.7214 17.632 42.5134 17.424C42.3054 17.2 42.2014 16.896 42.2014 16.512V14.472L42.5134 15C42.1934 15.896 41.6814 16.584 40.9774 17.064C40.2734 17.544 39.4414 17.784 38.4814 17.784Z" fill="#161C24"/>
<path d="M26.8231 17.7841C25.6391 17.7841 24.6151 17.5361 23.7511 17.0401C22.9031 16.5441 22.2391 15.8401 21.7591 14.9281C21.2791 14.0161 21.0391 12.9441 21.0391 11.7121C21.0391 10.7681 21.1751 9.92814 21.4471 9.19214C21.7191 8.45614 22.1031 7.82414 22.5991 7.29613C23.1111 6.75214 23.7191 6.34414 24.4231 6.07214C25.1431 5.78414 25.9431 5.64014 26.8231 5.64014C27.9911 5.64014 28.9991 5.88814 29.8471 6.38414C30.7111 6.88014 31.3831 7.58414 31.8631 8.49614C32.3431 9.39214 32.5831 10.4641 32.5831 11.7121C32.5831 12.6401 32.4471 13.4801 32.1751 14.2321C31.9031 14.9841 31.5111 15.6241 30.9991 16.1521C30.5031 16.6801 29.8951 17.0881 29.1751 17.3761C28.4711 17.6481 27.6871 17.7841 26.8231 17.7841ZM26.8231 15.9121C27.4791 15.9121 28.0551 15.7521 28.5511 15.4321C29.0471 15.1121 29.4311 14.6401 29.7031 14.0161C29.9911 13.3921 30.1351 12.6241 30.1351 11.7121C30.1351 10.3361 29.8311 9.29614 29.2231 8.59214C28.6151 7.88814 27.8151 7.53614 26.8231 7.53614C26.1511 7.53614 25.5671 7.69614 25.0711 8.01614C24.5751 8.32014 24.1831 8.78414 23.8951 9.40814C23.6231 10.0321 23.4871 10.8001 23.4871 11.7121C23.4871 13.0721 23.7911 14.1121 24.3991 14.8321C25.0071 15.5521 25.8151 15.9121 26.8231 15.9121Z" fill="#161C24"/>
<path d="M15.17 17.736C14.77 17.736 14.466 17.632 14.258 17.424C14.05 17.2 13.946 16.896 13.946 16.512V6.91195C13.946 6.51195 14.05 6.20795 14.258 5.99995C14.466 5.79195 14.754 5.68795 15.122 5.68795C15.506 5.68795 15.794 5.79195 15.986 5.99995C16.194 6.20795 16.298 6.51195 16.298 6.91195V8.66395H16.058C16.314 7.70395 16.786 6.97595 17.474 6.47995C18.162 5.98395 19.042 5.69595 20.114 5.61595C20.402 5.59995 20.626 5.67195 20.786 5.83195C20.962 5.99195 21.058 6.23995 21.074 6.57595C21.106 6.91195 21.034 7.18395 20.858 7.39195C20.682 7.58395 20.41 7.69595 20.042 7.72795L19.586 7.77595C18.546 7.87195 17.754 8.19995 17.21 8.75995C16.666 9.31995 16.394 10.0879 16.394 11.0639V16.512C16.394 16.896 16.29 17.2 16.082 17.424C15.89 17.632 15.586 17.736 15.17 17.736Z" fill="#161C24"/>
<path d="M6 22.1041C5.136 22.1041 4.296 22.0161 3.48 21.8401C2.68 21.6641 1.952 21.3761 1.296 20.9761C1.056 20.8481 0.896 20.6881 0.816 20.4961C0.736 20.3201 0.712 20.1361 0.744 19.9441C0.792 19.7521 0.88 19.5841 1.008 19.4401C1.136 19.2961 1.288 19.2001 1.464 19.1521C1.656 19.1041 1.856 19.1361 2.064 19.2481C2.768 19.6321 3.432 19.8881 4.056 20.0161C4.696 20.1601 5.288 20.2321 5.832 20.2321C6.952 20.2321 7.792 19.9441 8.352 19.3681C8.912 18.8081 9.192 17.9761 9.192 16.8721V14.4241H9.408C9.168 15.3041 8.664 16.0001 7.896 16.5121C7.128 17.0241 6.24 17.2801 5.232 17.2801C4.176 17.2801 3.256 17.0401 2.472 16.5601C1.688 16.0641 1.08 15.3841 0.648 14.5201C0.216 13.6401 0 12.6161 0 11.4481C0 10.5681 0.12 9.77614 0.36 9.07214C0.616 8.36814 0.968 7.76014 1.416 7.24814C1.88 6.73614 2.432 6.34414 3.072 6.07214C3.728 5.78414 4.448 5.64014 5.232 5.64014C6.256 5.64014 7.144 5.89614 7.896 6.40814C8.664 6.92014 9.16 7.61614 9.384 8.49614L9.144 8.90413V6.91214C9.144 6.51214 9.248 6.20814 9.456 6.00014C9.68 5.79214 9.976 5.68814 10.344 5.68814C10.728 5.68814 11.024 5.79214 11.232 6.00014C11.44 6.20814 11.544 6.51214 11.544 6.91214V16.5841C11.544 18.4081 11.072 19.7841 10.128 20.7121C9.184 21.6401 7.808 22.1041 6 22.1041ZM5.808 15.3841C6.512 15.3841 7.112 15.2241 7.608 14.9041C8.104 14.5841 8.488 14.1281 8.76 13.5361C9.032 12.9441 9.168 12.2481 9.168 11.4481C9.168 10.2481 8.864 9.29614 8.256 8.59214C7.664 7.88814 6.848 7.53614 5.808 7.53614C5.12 7.53614 4.528 7.69614 4.032 8.01614C3.536 8.33614 3.144 8.79214 2.856 9.38414C2.584 9.96014 2.448 10.6481 2.448 11.4481C2.448 12.6641 2.752 13.6241 3.36 14.3281C3.968 15.0321 4.784 15.3841 5.808 15.3841Z" fill="#161C24"/>
</svg>
