<svg width="16" height="16" viewBox="0 0 16 16" fill="none" xmlns="http://www.w3.org/2000/svg">
<path d="M7.33325 11.3332L8.66658 12.6665C8.79791 12.7978 8.95381 12.902 9.12539 12.9731C9.29697 13.0441 9.48087 13.0807 9.66658 13.0807C9.8523 13.0807 10.0362 13.0441 10.2078 12.9731C10.3794 12.902 10.5353 12.7978 10.6666 12.6665C10.7979 12.5352 10.9021 12.3793 10.9731 12.2077C11.0442 12.0361 11.0808 11.8522 11.0808 11.6665C11.0808 11.4808 11.0442 11.2969 10.9731 11.1253C10.9021 10.9537 10.7979 10.7978 10.6666 10.6665M9.3334 9.33318L11.0001 10.9998C11.2653 11.2651 11.625 11.4141 12.0001 11.4141C12.3751 11.4141 12.7349 11.2651 13.0001 10.9998C13.2653 10.7346 13.4143 10.3749 13.4143 9.99985C13.4143 9.62477 13.2653 9.26506 13.0001 8.99985L10.4134 6.41318C10.0384 6.03865 9.53007 5.82827 9.00007 5.82827C8.47007 5.82827 7.96174 6.03865 7.58674 6.41318L7.00007 6.99985C6.73485 7.26506 6.37514 7.41406 6.00007 7.41406C5.625 7.41406 5.26529 7.26506 5.00007 6.99985C4.73485 6.73463 4.58586 6.37492 4.58586 5.99985C4.58586 5.62477 4.73485 5.26506 5.00007 4.99985L6.8734 3.12651C7.48156 2.51994 8.27467 2.13355 9.12716 2.0285C9.97966 1.92344 10.8428 2.10573 11.5801 2.54651L11.8934 2.73318C12.1773 2.90451 12.5148 2.96393 12.8401 2.89985L14.0001 2.66651M13.9999 1.99984L14.6666 9.33317H13.3333M1.99992 1.99984L1.33325 9.33317L5.66659 13.6665C5.9318 13.9317 6.29151 14.0807 6.66658 14.0807C7.04166 14.0807 7.40137 13.9317 7.66658 13.6665C7.9318 13.4013 8.0808 13.0416 8.0808 12.6665C8.0808 12.2914 7.9318 11.9317 7.66658 11.6665M1.99992 2.6665H7.33325" stroke="#161C24" stroke-width="1.5" stroke-linecap="round" stroke-linejoin="round"/>
</svg>
