<svg width="20" height="20" viewBox="0 0 20 20" fill="none" xmlns="http://www.w3.org/2000/svg">
<path d="M5.83333 8.33268V5.83268C5.83333 4.72761 6.27232 3.66781 7.05372 2.8864C7.83512 2.105 8.89493 1.66602 10 1.66602C11.1051 1.66602 12.1649 2.105 12.9463 2.8864C13.7277 3.66781 14.1667 4.72761 14.1667 5.83268V8.33268M10.8333 13.3327C10.8333 13.7929 10.4602 14.166 10 14.166C9.53976 14.166 9.16667 13.7929 9.16667 13.3327C9.16667 12.8724 9.53976 12.4993 10 12.4993C10.4602 12.4993 10.8333 12.8724 10.8333 13.3327ZM4.16667 8.33268H15.8333C16.7538 8.33268 17.5 9.07887 17.5 9.99935V16.666C17.5 17.5865 16.7538 18.3327 15.8333 18.3327H4.16667C3.24619 18.3327 2.5 17.5865 2.5 16.666V9.99935C2.5 9.07887 3.24619 8.33268 4.16667 8.33268Z" stroke="#637584" stroke-width="1.5" stroke-linecap="round" stroke-linejoin="round"/>
</svg>
