<svg width="110" height="36" viewBox="0 0 110 36" fill="none" xmlns="http://www.w3.org/2000/svg">
<path d="M61.1093 27.0935C60.1737 27.0935 59.4153 26.2992 59.4153 25.3194V12.6474C59.4153 11.6676 60.1737 10.8733 61.1093 10.8733C62.0449 10.8733 62.8033 11.6676 62.8033 12.6474V13.9837L62.4953 13.3617C62.8033 12.778 63.2213 12.2788 63.7493 11.8641C64.2919 11.434 64.9299 11.1114 65.6633 10.8964C66.3966 10.666 67.2033 10.5508 68.0833 10.5508C69.2126 10.5508 70.2466 10.7889 71.1853 11.265C72.1239 11.7412 72.8793 12.4401 73.4513 13.3617C74.038 14.2833 74.3313 15.4353 74.3313 16.8177C74.3313 17.6317 74.2213 18.3767 74.0013 19.0525C73.7813 19.713 73.4733 20.2967 73.0773 20.8036C72.6959 21.2951 72.2413 21.7098 71.7133 22.0477C71.2 22.3703 70.6353 22.6161 70.0193 22.785C69.4033 22.954 68.7579 23.0385 68.0833 23.0385C67.2033 23.0385 66.3966 22.9309 65.6633 22.7159C64.9299 22.4855 64.2919 22.1553 63.7493 21.7252C63.2213 21.2951 62.8033 20.7959 62.4953 20.2276L62.8033 19.6055V25.3194C62.8033 26.2992 62.0449 27.0935 61.1093 27.0935ZM66.8733 20.481C67.3719 20.481 67.8266 20.4196 68.2373 20.2967C68.648 20.1738 69.0146 20.0049 69.3373 19.7898C69.6599 19.5594 69.9313 19.2906 70.1513 18.9834C70.3713 18.6762 70.5399 18.3383 70.6573 17.9697C70.7746 17.601 70.8333 17.2093 70.8333 16.7946C70.8333 16.1034 70.6719 15.4813 70.3493 14.9284C70.0413 14.3754 69.5939 13.9377 69.0073 13.6151C68.4206 13.2772 67.7093 13.1082 66.8733 13.1082C66.3746 13.1082 65.9126 13.1697 65.4873 13.2925C65.062 13.4154 64.6806 13.5921 64.3433 13.8225C64.0059 14.0375 63.7199 14.2986 63.4853 14.6058C63.2506 14.913 63.0673 15.2509 62.9353 15.6196C62.8179 15.9882 62.7593 16.3799 62.7593 16.7946C62.7593 17.4858 62.9279 18.1156 63.2653 18.6839C63.6026 19.2369 64.0793 19.6746 64.6953 19.9972C65.3113 20.3197 66.0373 20.481 66.8733 20.481Z" fill="#161C24"/>
<path d="M103.041 23.0371C101.501 23.0371 100.174 22.776 99.0589 22.2538C97.9589 21.7315 97.1083 21.0019 96.507 20.065C95.9203 19.1126 95.627 18.0221 95.627 16.7933C95.627 16.0406 95.7296 15.3494 95.935 14.7197C96.155 14.0746 96.4703 13.4986 96.8809 12.9917C97.3063 12.4694 97.8196 12.0317 98.421 11.6784C99.0223 11.3098 99.7116 11.0333 100.489 10.849C101.266 10.6493 102.117 10.5494 103.041 10.5494C104.156 10.5494 105.16 10.6877 106.055 10.9642C106.95 11.2406 107.705 11.6707 108.321 12.2544C108.952 12.8227 109.428 13.5523 109.751 14.4432C110.035 15.2144 110.189 16.1167 110.211 17.15C110.216 17.3864 110.031 17.5766 109.806 17.5766H97.7829V15.6182H106.43C106.602 15.6182 106.732 15.4556 106.686 15.2831C106.606 14.9897 106.491 14.7251 106.341 14.4893C106.136 14.1514 105.872 13.8672 105.549 13.6368C105.226 13.4064 104.852 13.2374 104.427 13.1299C104.002 13.0224 103.532 12.9686 103.019 12.9686C102.491 12.9686 102.007 13.0301 101.567 13.153C101.142 13.2758 100.76 13.4525 100.423 13.6829C100.1 13.8979 99.8289 14.1667 99.6089 14.4893C99.4036 14.7965 99.2423 15.1421 99.125 15.5261C99.0223 15.9101 98.971 16.3325 98.971 16.7933C98.971 17.5306 99.1176 18.191 99.4109 18.7747C99.7189 19.343 100.181 19.7962 100.797 20.1341C101.413 20.4566 102.176 20.6179 103.085 20.6179C103.921 20.6179 104.625 20.5104 105.197 20.2954C105.409 20.2098 105.602 20.1095 105.776 19.9943C106.304 19.6451 106.868 19.2816 107.491 19.2816H107.879C108.948 19.2816 109.671 20.3792 108.915 21.1709C108.372 21.7392 107.617 22.1923 106.649 22.5302C105.696 22.8682 104.493 23.0371 103.041 23.0371Z" fill="#161C24"/>
<path d="M82.9959 22.7146C82.057 22.7146 81.2959 21.9175 81.2959 20.9342C81.2959 20.3857 81.5373 19.8677 81.9503 19.5304L91.3939 11.8166L93.3299 13.2221H82.6599C82.0402 13.2221 81.5379 12.696 81.5379 12.047C81.5379 11.3981 82.0402 10.872 82.6599 10.872H92.4674C93.4054 10.872 94.1659 11.6684 94.1659 12.6508C94.1659 13.2002 93.9235 13.7187 93.5091 14.0557L84.0239 21.7699L82.1319 20.3645H93.2419C93.8615 20.3645 94.3639 20.8906 94.3639 21.5395C94.3639 22.1885 93.8615 22.7146 93.2419 22.7146H82.9959Z" fill="#161C24"/>
<path d="M48.7066 23.0371C47.856 23.0371 47.1006 22.9142 46.4406 22.6685C45.7953 22.4074 45.2526 22.0387 44.8126 21.5626C44.3726 21.0864 44.0353 20.5027 43.8006 19.8115C43.566 19.105 43.4486 18.3062 43.4486 17.4154V12.6576C43.4486 11.6714 44.212 10.872 45.1536 10.872C46.0953 10.872 46.8586 11.6714 46.8586 12.6576V16.7011C46.8586 17.4538 46.9686 18.1066 47.1886 18.6595C47.4233 19.2125 47.7826 19.6426 48.2666 19.9498C48.7506 20.2416 49.3593 20.3875 50.0926 20.3875C50.87 20.3875 51.53 20.2262 52.0726 19.9037C52.63 19.5658 53.0553 19.1203 53.3486 18.5674C53.642 17.999 53.7886 17.3462 53.7886 16.609V12.6461C53.7886 11.6663 54.5471 10.872 55.4826 10.872C56.4182 10.872 57.1766 11.6663 57.1766 12.6461V20.9405C57.1766 21.9203 56.4182 22.7146 55.4826 22.7146C54.5471 22.7146 53.7886 21.9203 53.7886 20.9405V19.3507L54.1186 19.8806C53.6786 20.9098 52.9893 21.6931 52.0506 22.2307C51.1266 22.7683 50.012 23.0371 48.7066 23.0371Z" fill="#161C24"/>
<path d="M34.336 23.0371C32.7813 23.0371 31.4393 22.776 30.31 22.2538C29.1807 21.7315 28.3153 21.0019 27.714 20.065C27.1273 19.128 26.834 18.0374 26.834 16.7933C26.834 16.0406 26.944 15.3494 27.164 14.7197C27.384 14.0746 27.6993 13.4986 28.11 12.9917C28.5353 12.4694 29.0487 12.0317 29.65 11.6784C30.266 11.3098 30.9627 11.0333 31.74 10.849C32.532 10.6493 33.3973 10.5494 34.336 10.5494C35.9053 10.5494 37.2473 10.8106 38.362 11.3328C39.4767 11.855 40.3273 12.5846 40.914 13.5216C41.5153 14.4432 41.816 15.5338 41.816 16.7933C41.816 17.5306 41.706 18.2218 41.486 18.8669C41.2807 19.512 40.9653 20.0957 40.54 20.6179C40.1293 21.1248 39.616 21.5626 39 21.9312C38.3987 22.2845 37.702 22.5533 36.91 22.7376C36.1327 22.9373 35.2747 23.0371 34.336 23.0371ZM34.336 20.4797C34.8787 20.4797 35.3627 20.4182 35.788 20.2954C36.2133 20.1725 36.58 19.9958 36.888 19.7654C37.2107 19.535 37.4747 19.2662 37.68 18.959C37.9 18.6518 38.0613 18.3139 38.164 17.9453C38.2667 17.5766 38.318 17.1926 38.318 16.7933C38.318 16.1021 38.1713 15.48 37.878 14.927C37.5993 14.3741 37.1593 13.9363 36.558 13.6138C35.9713 13.2758 35.2307 13.1069 34.336 13.1069C33.7933 13.1069 33.3093 13.1683 32.884 13.2912C32.4587 13.4141 32.0847 13.5907 31.762 13.8211C31.4393 14.0362 31.168 14.2973 30.948 14.6045C30.7427 14.9117 30.5887 15.2496 30.486 15.6182C30.3833 15.9869 30.332 16.3786 30.332 16.7933C30.332 17.4538 30.4787 18.0682 30.772 18.6365C31.0653 19.2048 31.5053 19.6579 32.092 19.9958C32.6933 20.3184 33.4413 20.4797 34.336 20.4797Z" fill="#161C24"/>
<path d="M18.8279 22.7146C17.8923 22.7146 17.1339 21.9203 17.1339 20.9405V12.6461C17.1339 11.6663 17.8923 10.872 18.8279 10.872C19.7634 10.872 20.5219 11.6663 20.5219 12.6461V15.1114L20.2579 15.0192C20.4779 14.0054 20.7785 13.199 21.1599 12.6C21.5559 11.9856 22.0472 11.5478 22.6339 11.2867C23.2205 11.0102 23.9172 10.872 24.7239 10.872C25.3557 10.872 25.8679 11.4084 25.8679 12.0701V12.4733C25.8679 13.2686 25.2523 13.9133 24.4929 13.9133H24.3939C23.6312 13.9133 22.9565 14.1053 22.3699 14.4893C21.7832 14.8579 21.3285 15.3648 21.0059 16.0099C20.6832 16.655 20.5219 17.3846 20.5219 18.1987V20.9405C20.5219 21.9203 19.7634 22.7146 18.8279 22.7146Z" fill="#161C24"/>
<path d="M7.678 27.4147C6.41667 27.4147 5.28733 27.2688 4.29 26.977C3.30733 26.7005 2.50067 26.2781 1.87 25.7098C1.82114 25.6647 1.77375 25.6187 1.72784 25.5718C0.908129 24.7341 1.77775 23.567 2.92306 23.567C3.6589 23.567 4.29517 24.1063 4.92688 24.5015C5.06031 24.585 5.20735 24.6575 5.368 24.719C5.96933 24.9648 6.754 25.0877 7.722 25.0877C8.47 25.0877 9.12267 24.9802 9.68 24.7651C10.252 24.5501 10.6993 24.2275 11.022 23.7974C11.3447 23.3674 11.506 22.8528 11.506 22.2538V19.0512L11.836 19.6733C11.5133 20.2262 11.0807 20.7101 10.538 21.1248C10.01 21.5242 9.37933 21.839 8.646 22.0694C7.92733 22.2998 7.13533 22.415 6.27 22.415C5.14067 22.415 4.09933 22.1846 3.146 21.7238C2.19267 21.263 1.43 20.5949 0.858 19.7194C0.286 18.8285 0 17.7379 0 16.4477C0 15.6797 0.102667 14.9885 0.308 14.3741C0.528 13.7443 0.828667 13.1914 1.21 12.7152C1.606 12.239 2.068 11.8397 2.596 11.5171C3.124 11.1946 3.696 10.9565 4.312 10.8029C4.94267 10.6339 5.59533 10.5494 6.27 10.5494C7.13533 10.5494 7.92733 10.657 8.646 10.872C9.37933 11.087 10.01 11.4019 10.538 11.8166C11.0807 12.2314 11.5133 12.7229 11.836 13.2912L11.506 13.8902V12.6461C11.506 11.6663 12.2644 10.872 13.2 10.872C14.1356 10.872 14.894 11.6663 14.894 12.6461V22.0925C14.894 23.0448 14.6887 23.8589 14.278 24.5347C13.882 25.2106 13.3393 25.7635 12.65 26.1936C11.9607 26.6237 11.1833 26.9309 10.318 27.1152C9.46733 27.3149 8.58733 27.4147 7.678 27.4147ZM7.458 19.8576C7.942 19.8576 8.38933 19.8115 8.8 19.7194C9.22533 19.6118 9.60667 19.4582 9.944 19.2586C10.2813 19.0589 10.5673 18.8208 10.802 18.5443C11.0367 18.2678 11.2127 17.953 11.33 17.5997C11.462 17.2464 11.528 16.8701 11.528 16.4707C11.528 15.7795 11.3593 15.1805 11.022 14.6736C10.6847 14.1667 10.208 13.775 9.592 13.4986C8.99067 13.2067 8.27933 13.0608 7.458 13.0608C6.95933 13.0608 6.49733 13.1146 6.072 13.2221C5.66133 13.3296 5.29467 13.4832 4.972 13.6829C4.664 13.8672 4.39267 14.0976 4.158 14.3741C3.938 14.6506 3.76933 14.9654 3.652 15.3187C3.54933 15.672 3.498 16.056 3.498 16.4707C3.498 17.1466 3.652 17.7456 3.96 18.2678C4.28267 18.7747 4.73733 19.1664 5.324 19.4429C5.92533 19.7194 6.63667 19.8576 7.458 19.8576Z" fill="#161C24"/>
<path d="M77.7321 8.91157L77.3206 7.6189C76.9101 6.32895 75.9435 5.31672 74.7118 4.88672L73.4774 4.45578L74.7117 4.02493C75.9435 3.59495 76.9101 2.58268 77.3207 1.29267L77.7321 0L78.1435 1.29272C78.5541 2.5827 79.5207 3.59496 80.7524 4.02495L81.9867 4.45584L80.7524 4.88673C79.5206 5.31672 78.5541 6.32896 78.1435 7.61893L77.7321 8.91157Z" fill="#9333EA"/>
<path d="M77.8245 22.7146C76.8889 22.7146 76.1305 21.9203 76.1305 20.9405V12.6461C76.1305 11.6663 76.8889 10.872 77.8245 10.872C78.76 10.872 79.5185 11.6663 79.5185 12.6461V20.9405C79.5185 21.9203 78.76 22.7146 77.8245 22.7146Z" fill="#9333EA"/>
</svg>
