<svg width="16" height="16" viewBox="0 0 16 16" fill="none" xmlns="http://www.w3.org/2000/svg">
<g clip-path="url(#clip0_5360_3094)">
<path d="M5.88992 9.3335H3.33325C3.19761 9.34089 3.06746 9.38954 2.96023 9.47294C2.853 9.55634 2.7738 9.67051 2.73325 9.80016L1.39992 13.8002C1.33325 13.8668 1.33325 13.9335 1.33325 14.0002C1.33325 14.4002 1.59992 14.6668 1.99992 14.6668H13.9999C14.3999 14.6668 14.6666 14.4002 14.6666 14.0002C14.6666 13.9335 14.6666 13.8668 14.5999 13.8002L13.2666 9.80016C13.226 9.67051 13.1468 9.55634 13.0396 9.47294C12.9324 9.38954 12.8022 9.34089 12.6666 9.3335H10.1099M11.9999 5.3335C11.9999 8.3335 7.99992 11.3335 7.99992 11.3335C7.99992 11.3335 3.99992 8.3335 3.99992 5.3335C3.99992 4.27263 4.42135 3.25521 5.17149 2.50507C5.92164 1.75492 6.93905 1.3335 7.99992 1.3335C9.06078 1.3335 10.0782 1.75492 10.8283 2.50507C11.5785 3.25521 11.9999 4.27263 11.9999 5.3335ZM9.33325 5.3335C9.33325 6.06988 8.7363 6.66683 7.99992 6.66683C7.26354 6.66683 6.66658 6.06988 6.66658 5.3335C6.66658 4.59712 7.26354 4.00016 7.99992 4.00016C8.7363 4.00016 9.33325 4.59712 9.33325 5.3335Z" stroke="#161C24" stroke-width="1.5" stroke-linecap="round" stroke-linejoin="round"/>
</g>
<defs>
<clipPath id="clip0_5360_3094">
<rect width="16" height="16" fill="white"/>
</clipPath>
</defs>
</svg>
