<svg width="16" height="16" viewBox="0 0 16 16" fill="none" xmlns="http://www.w3.org/2000/svg">
<g clip-path="url(#clip0_5360_3013)">
<path d="M11.9999 6.00016H13.3333C13.6869 6.00016 14.026 6.14064 14.2761 6.39069C14.5261 6.64074 14.6666 6.97987 14.6666 7.3335V14.6668L11.9999 12.0002H7.99992C7.6463 12.0002 7.30716 11.8597 7.05711 11.6096C6.80706 11.3596 6.66658 11.0205 6.66658 10.6668V10.0002M9.33325 6.00016C9.33325 6.35378 9.19278 6.69292 8.94273 6.94297C8.69268 7.19302 8.35354 7.3335 7.99992 7.3335H3.99992L1.33325 10.0002V2.66683C1.33325 1.9335 1.93325 1.3335 2.66659 1.3335H7.99992C8.35354 1.3335 8.69268 1.47397 8.94273 1.72402C9.19278 1.97407 9.33325 2.31321 9.33325 2.66683V6.00016Z" stroke="#161C24" stroke-width="1.5" stroke-linecap="round" stroke-linejoin="round"/>
</g>
<defs>
<clipPath id="clip0_5360_3013">
<rect width="16" height="16" fill="white"/>
</clipPath>
</defs>
</svg>
