<svg width="16" height="16" viewBox="0 0 16 16" fill="none" xmlns="http://www.w3.org/2000/svg">
<path d="M12.6668 6.66732V8.00065C12.6668 9.23833 12.1752 10.4253 11.3 11.3005C10.4248 12.1757 9.23784 12.6673 8.00016 12.6673M8.00016 12.6673C6.76249 12.6673 5.5755 12.1757 4.70033 11.3005C3.82516 10.4253 3.3335 9.23833 3.3335 8.00065V6.66732M8.00016 12.6673V14.6673M8.00016 1.33398C7.46973 1.33398 6.96102 1.5447 6.58595 1.91977C6.21088 2.29484 6.00016 2.80355 6.00016 3.33398V8.00065C6.00016 8.53108 6.21088 9.03979 6.58595 9.41486C6.96102 9.78994 7.46973 10.0007 8.00016 10.0007C8.5306 10.0007 9.0393 9.78994 9.41438 9.41486C9.78945 9.03979 10.0002 8.53108 10.0002 8.00065V3.33398C10.0002 2.80355 9.78945 2.29484 9.41438 1.91977C9.0393 1.5447 8.5306 1.33398 8.00016 1.33398Z" stroke="#161C24" stroke-width="1.33" stroke-linecap="round" stroke-linejoin="round"/>
</svg>
