<svg width="16" height="16" viewBox="0 0 16 16" fill="none" xmlns="http://www.w3.org/2000/svg">
<path d="M14.1399 10.594C13.7158 11.597 13.0525 12.4808 12.2079 13.1682C11.3633 13.8556 10.3631 14.3257 9.2949 14.5372C8.22668 14.7488 7.12289 14.6955 6.08004 14.3819C5.03719 14.0683 4.08703 13.5041 3.31262 12.7385C2.53822 11.9729 1.96315 11.0292 1.6377 9.99C1.31225 8.9508 1.24632 7.84769 1.44568 6.77713C1.64503 5.70656 2.10361 4.70112 2.78131 3.84872C3.45901 2.99632 4.3352 2.32291 5.33328 1.88737M14.6667 8.00065C14.6667 7.12517 14.4942 6.25827 14.1592 5.44943C13.8242 4.64059 13.3331 3.90566 12.714 3.28661C12.095 2.66755 11.3601 2.17649 10.5512 1.84145C9.74239 1.50642 8.87548 1.33398 8 1.33398V8.00065H14.6667Z" stroke="#637584" stroke-width="1.33" stroke-linecap="round" stroke-linejoin="round"/>
</svg>
