<svg width="16" height="16" viewBox="0 0 16 16" fill="none" xmlns="http://www.w3.org/2000/svg">
<path d="M13.5444 2.66797C14.6786 2.66806 15.598 3.58754 15.5981 4.72168V11.9443C15.598 13.0785 14.6786 13.998 13.5444 13.998H2.98877C1.85461 13.9979 0.935176 13.0785 0.935059 11.9443V4.72168C0.93522 3.58756 1.85464 2.66809 2.98877 2.66797H13.5444ZM2.98877 3.99805C2.58918 3.99816 2.2653 4.3221 2.26514 4.72168V11.9443C2.26525 12.344 2.58915 12.6679 2.98877 12.668H13.5444C13.9441 12.6679 14.2679 12.344 14.2681 11.9443V4.72168C14.2679 4.32208 13.9441 3.99813 13.5444 3.99805H2.98877ZM12.8003 4.66602C13.242 4.66621 13.6001 5.02509 13.6001 5.4668V11.2002C13.5999 11.6417 13.2418 11.9998 12.8003 12H10.3999C9.95824 12 9.60033 11.6418 9.6001 11.2002V5.4668C9.6001 5.02498 9.95809 4.66603 10.3999 4.66602H12.8003Z" fill="#161C24"/>
</svg>
