<svg width="15" height="12" viewBox="0 0 15 12" fill="none" xmlns="http://www.w3.org/2000/svg">
<path d="M12.6094 0C13.7435 8.79526e-05 14.6629 0.919572 14.6631 2.05371V9.27637C14.663 10.4105 13.7436 11.33 12.6094 11.3301H2.05371C0.919551 11.33 0.000117493 10.4105 0 9.27637V2.05371C0.000161596 0.91959 0.919578 0.000117362 2.05371 0H12.6094ZM2.05371 1.33008C1.65412 1.3302 1.33024 1.65413 1.33008 2.05371V9.27637C1.3302 9.67599 1.65409 9.99988 2.05371 10H12.6094C13.009 9.99991 13.3329 9.67601 13.333 9.27637V2.05371C13.3328 1.65411 13.009 1.33017 12.6094 1.33008H2.05371ZM11.8652 1.99805C12.3069 1.99824 12.665 2.35712 12.665 2.79883V8.53223C12.6648 8.97373 12.3068 9.33184 11.8652 9.33203H9.46484C9.02318 9.33201 8.66528 8.97384 8.66504 8.53223V2.79883C8.66504 2.35701 9.02303 1.99806 9.46484 1.99805H11.8652Z" fill="#161C24"/>
</svg>
