<svg width="16" height="16" viewBox="0 0 16 16" fill="none" xmlns="http://www.w3.org/2000/svg">
<path d="M12.0002 14C12.0002 12.5855 11.4383 11.229 10.4381 10.2288C9.43787 9.22857 8.08132 8.66667 6.66683 8.66667M6.66683 8.66667C5.25234 8.66667 3.89579 9.22857 2.89559 10.2288C1.8954 11.229 1.3335 12.5855 1.3335 14M6.66683 8.66667C8.50778 8.66667 10.0002 7.17428 10.0002 5.33333C10.0002 3.49238 8.50778 2 6.66683 2C4.82588 2 3.3335 3.49238 3.3335 5.33333C3.3335 7.17428 4.82588 8.66667 6.66683 8.66667ZM14.6669 13.3333C14.6669 11.0866 13.3335 8.99997 12.0002 7.99997C12.4385 7.67115 12.7889 7.23936 13.0206 6.74281C13.2522 6.24627 13.3579 5.70028 13.3282 5.15317C13.2985 4.60606 13.1345 4.07469 12.8505 3.6061C12.5666 3.13751 12.1715 2.74614 11.7002 2.46663" stroke="#161C24" stroke-width="1.33" stroke-linecap="round" stroke-linejoin="round"/>
</svg>
