<svg width="16" height="16" viewBox="0 0 16 16" fill="none" xmlns="http://www.w3.org/2000/svg">
<path d="M1.33325 14C1.33333 13.1606 1.53151 12.3332 1.91169 11.5848C2.29186 10.8365 2.8433 10.1885 3.52113 9.69345C4.19897 9.19842 4.98408 8.87037 5.81261 8.73597C6.64114 8.60157 7.48969 8.66462 8.28925 8.92M14.6666 14.6667L13.4 13.4001M9.99992 5.33333C9.99992 7.17428 8.50753 8.66667 6.66658 8.66667C4.82564 8.66667 3.33325 7.17428 3.33325 5.33333C3.33325 3.49238 4.82564 2 6.66658 2C8.50753 2 9.99992 3.49238 9.99992 5.33333ZM13.9999 12C13.9999 13.1046 13.1045 14 11.9999 14C10.8953 14 9.99992 13.1046 9.99992 12C9.99992 10.8954 10.8953 10 11.9999 10C13.1045 10 13.9999 10.8954 13.9999 12Z" stroke="#161C24" stroke-width="1.5" stroke-linecap="round" stroke-linejoin="round"/>
</svg>
